<svg xmlns="http://www.w3.org/2000/svg" width="23" height="32" viewBox="0 0 23 32">
  <g id="Group_1515" data-name="Group 1515" transform="translate(-137 -83)">
    <path id="Union_1" data-name="Union 1" d="M-2868,32a4,4,0,0,1-4-4V8a4,4,0,0,1,4-4h3a4.272,4.272,0,0,1,4.5-4,4.272,4.272,0,0,1,4.5,4h3a4,4,0,0,1,4,4V28a4,4,0,0,1-4,4Z" transform="translate(3009 83)" fill="#fff"/>
    <g id="Group_1514" data-name="Group 1514">
      <line id="Line_206" data-name="Line 206" x2="7" transform="translate(148 107.197)" fill="none" stroke="#0f5784" stroke-linecap="round" stroke-width="3"/>
      <line id="Line_207" data-name="Line 207" x2="13" transform="translate(142 101)" fill="none" stroke="#0f5784" stroke-linecap="round" stroke-width="3"/>
      <line id="Line_208" data-name="Line 208" x2="13" transform="translate(142 94.803)" fill="none" stroke="#0f5784" stroke-linecap="round" stroke-width="3"/>
    </g>
  </g>
</svg>
