<svg xmlns="http://www.w3.org/2000/svg" width="40.156" height="22" viewBox="0 0 40.156 22">
  <g id="Group_1520" data-name="Group 1520" transform="translate(-50.844 -33)">
    <g id="Group_1508" data-name="Group 1508" transform="translate(0 1)">
      <circle id="Ellipse_202" data-name="Ellipse 202" cx="4.5" cy="4.5" r="4.5" transform="translate(56 33)" fill="#fff"/>
      <path id="Path_1150" data-name="Path 1150" d="M2955.95,52.365s-1.184-7.412,4.364-8.745l3.015,5.732,1.636-2.431s-1.23-2.713-.958-3.074,3.12-.329,3.412,0-1,3.074-1,3.074l1.547,2.431,2.783-5.732c5.642.957,4.286,8.745,4.286,8.745Z" transform="translate(-2905)" fill="#fff"/>
    </g>
    <g id="Group_1513" data-name="Group 1513" transform="translate(0 0.049)">
      <line id="Line_202" data-name="Line 202" x2="4.234" transform="translate(72.5 43.726)" fill="none" stroke="#fff" stroke-linecap="round" stroke-width="2"/>
      <line id="Line_203" data-name="Line 203" y2="13.549" transform="translate(76.734 36.951)" fill="none" stroke="#fff" stroke-linecap="round" stroke-width="2"/>
      <line id="Line_204" data-name="Line 204" x2="3.964" transform="translate(76.734 36.951)" fill="none" stroke="#fff" stroke-linecap="round" stroke-width="2"/>
      <line id="Line_205" data-name="Line 205" x2="3.964" transform="translate(76.734 50.5)" fill="none" stroke="#fff" stroke-linecap="round" stroke-width="2"/>
    </g>
    <g id="Group_1512" data-name="Group 1512">
      <g id="Group_1509" data-name="Group 1509" transform="translate(-64 8)">
        <g id="Ellipse_203" data-name="Ellipse 203" transform="translate(147 25)" fill="none" stroke="#fff" stroke-width="1">
          <circle cx="4" cy="4" r="4" stroke="none"/>
          <circle cx="4" cy="4" r="3.5" fill="none"/>
        </g>
        <path id="Path_1151" data-name="Path 1151" d="M3022.05,28.605l.722.7,1.707-1.739" transform="translate(-2872.264 0.559)" fill="none" stroke="#fff" stroke-linecap="round" stroke-width="1"/>
      </g>
      <g id="Group_1510" data-name="Group 1510" transform="translate(-64 8)">
        <g id="Ellipse_203-2" data-name="Ellipse 203" transform="translate(147 25)" fill="none" stroke="#fff" stroke-width="1">
          <circle cx="4" cy="4" r="4" stroke="none"/>
          <circle cx="4" cy="4" r="3.5" fill="none"/>
        </g>
        <path id="Path_1151-2" data-name="Path 1151" d="M3022.05,28.605l.722.7,1.707-1.739" transform="translate(-2872.264 0.559)" fill="none" stroke="#fff" stroke-linecap="round" stroke-width="1"/>
      </g>
      <g id="Group_1511" data-name="Group 1511" transform="translate(-64 22)">
        <g id="Ellipse_203-3" data-name="Ellipse 203" transform="translate(147 25)" fill="none" stroke="#fff" stroke-width="1">
          <circle cx="4" cy="4" r="4" stroke="none"/>
          <circle cx="4" cy="4" r="3.5" fill="none"/>
        </g>
        <path id="Path_1151-3" data-name="Path 1151" d="M3022.05,28.605l.722.7,1.707-1.739" transform="translate(-2872.264 0.559)" fill="none" stroke="#fff" stroke-linecap="round" stroke-width="1"/>
      </g>
    </g>
  </g>
</svg>
